{
  "source": "C:\\Users\\Peter\\Desktop\\stuff\\MIUN\\quantitative_research\\video_compression\\videos\\BVI-HD\\RockWater_1920x1080_30fps.mp4",
  "output": "C:\\Users\\Peter\\Desktop\\stuff\\MIUN\\quantitative_research\\video_compression\\compressed_videos\\BVI-HD\\hevc\\1.5\\RockWater_1920x1080_30fps_hevc.mp4",
  "codec": "hevc",
  "ok": "Input #0, mov,mp4,m4a,3gp,3g2,mj2, from 'C:\\Users\\Peter\\Desktop\\stuff\\MIUN\\quantitative_research\\video_compression\\videos\\BVI-HD\\RockWater_1920x1080_30fps.mp4':\n  Metadata:\n    major_brand     : isom\n    minor_version   : 512\n    compatible_brands: isomiso2avc1mp41\n    encoder         : Lavf54.28.101\n  Duration: 00:00:05.00, start: 0.000000, bitrate: 245943 kb/s\n  Stream #0:0[0x1](und): Video: h264 (High 4:4:4 Predictive) (avc1 / 0x31637661), yuv420p(progressive), 1920x1080, 245940 kb/s, 30 fps, 30 tbr, 30 tbn (default)\n    Metadata:\n      handler_name    : VideoHandler\n      vendor_id       : [0][0][0][0]\n[out#0/mp4 @ 0000023cabca1440] Codec AVOption b:a (set bitrate (in bits/s)) has not been used for any stream. The most likely reason is either wrong type (e.g. a video option with no video streams) or that it is a private option of some decoder which was not actually used for any stream.\nStream mapping:\n  Stream #0:0 -> #0:0 (h264 (native) -> hevc (libx265))\nPress [q] to stop, [?] for help\n[libx265 @ 0000023cac5547c0] Unknown option: \"aq-mode.\nx265 [info]: HEVC encoder version 4.1+190-8f11c33ac\nx265 [info]: build info [Windows][GCC 15.1.0][64 bit] 10bit\nx265 [info]: using cpu capabilities: MMX2 SSE2Fast LZCNT SSSE3 SSE4.2 AVX FMA3 BMI2 AVX2\nx265 [info]: Main 10 profile, Level-4 (Main tier)\nx265 [info]: Thread pool created using 12 threads\nx265 [info]: Slices                              : 1\nx265 [info]: frame threads / pool features       : 3 / wpp(17 rows)\nx265 [info]: Coding QT: max CU size, min CU size : 64 / 8\nx265 [info]: Residual QT: max TU size, max depth : 32 / 1 inter / 1 intra\nx265 [info]: ME / range / subpel / merge         : star / 57 / 3 / 3\nx265 [info]: Keyframe min / max / scenecut / bias  : 25 / 250 / 40 / 5.00 \nx265 [info]: Lookahead / bframes / badapt        : 25 / 4 / 2\nx265 [info]: b-pyramid / weightp / weightb       : 1 / 1 / 0\nx265 [info]: References / ref-limit  cu / depth  : 4 / on / on\nx265 [info]: AQ: mode / str / qg-size / cu-tree  : 2 / 1.0 / 32 / 1\nx265 [info]: Rate Control / qCompress            : ABR-1500 kbps / 0.60\nx265 [info]: VBV/HRD buffer / max-rate / init    : 1500 / 1500 / 0.750\nx265 [info]: tools: rect limit-modes rd=4 psy-rd=2.00 rdoq=2 psy-rdoq=1.00\nx265 [info]: tools: rskip mode=1 signhide tmvp strong-intra-smoothing lslices=4\nx265 [info]: tools: deblock sao dhdr10-info\nOutput #0, mp4, to 'C:\\Users\\Peter\\Desktop\\stuff\\MIUN\\quantitative_research\\video_compression\\compressed_videos\\BVI-HD\\hevc\\1.5\\RockWater_1920x1080_30fps_hevc.mp4':\n  Metadata:\n    major_brand     : isom\n    minor_version   : 512\n    compatible_brands: isomiso2avc1mp41\n    encoder         : Lavf62.3.100\n  Stream #0:0(und): Video: hevc (hev1 / 0x31766568), yuv420p10le(tv, progressive), 1920x1080, q=2-31, 1500 kb/s, 30 fps, 15360 tbn (default)\n    Metadata:\n      encoder         : Lavc62.11.100 libx265\n      handler_name    : VideoHandler\n      vendor_id       : [0][0][0][0]\n    Side data:\n      cpb: bitrate max/min/avg: 1500000/0/1500000 buffer size: 1500000 vbv_delay: N/A\nframe=    0 fps=0.0 q=0.0 size=       0KiB time=N/A bitrate=N/A speed=N/A elapsed=0:00:00.53    \nframe=    0 fps=0.0 q=0.0 size=       0KiB time=N/A bitrate=N/A speed=N/A elapsed=0:00:01.12    \nframe=    3 fps=1.8 q=48.9 size=       0KiB time=00:00:00.03 bitrate=  10.6kbits/s speed=0.0203x elapsed=0:00:01.64    \nframe=    7 fps=3.2 q=47.7 size=       0KiB time=00:00:00.16 bitrate=   2.1kbits/s speed=0.0771x elapsed=0:00:02.16    \nframe=   10 fps=3.7 q=45.7 size=       0KiB time=00:00:00.26 bitrate=   1.3kbits/s speed=0.0998x elapsed=0:00:02.67    \nframe=   14 fps=4.4 q=45.9 size=       0KiB time=00:00:00.40 bitrate=   0.9kbits/s speed=0.125x elapsed=0:00:03.19    \nframe=   16 fps=4.3 q=42.9 size=       0KiB time=00:00:00.46 bitrate=   0.8kbits/s speed=0.126x elapsed=0:00:03.70    \nframe=   18 fps=4.3 q=42.5 size=       0KiB time=00:00:00.53 bitrate=   0.7kbits/s speed=0.126x elapsed=0:00:04.22    \nframe=   20 fps=4.2 q=45.5 size=       0KiB time=00:00:00.60 bitrate=   0.6kbits/s speed=0.127x elapsed=0:00:04.73    \nframe=   22 fps=4.2 q=46.2 size=       0KiB time=00:00:00.66 bitrate=   0.5kbits/s speed=0.127x elapsed=0:00:05.24    \nframe=   25 fps=4.3 q=44.7 size=       0KiB time=00:00:00.76 bitrate=   0.5kbits/s speed=0.133x elapsed=0:00:05.76    \nframe=   27 fps=4.3 q=46.2 size=       0KiB time=00:00:00.83 bitrate=   0.4kbits/s speed=0.132x elapsed=0:00:06.29    \nframe=   29 fps=4.3 q=44.3 size=       0KiB time=00:00:00.90 bitrate=   0.4kbits/s speed=0.133x elapsed=0:00:06.79    \nframe=   32 fps=4.4 q=44.0 size=       0KiB time=00:00:01.00 bitrate=   0.4kbits/s speed=0.137x elapsed=0:00:07.31    \nframe=   34 fps=4.3 q=46.1 size=       0KiB time=00:00:01.06 bitrate=   0.3kbits/s speed=0.136x elapsed=0:00:07.83    \nframe=   36 fps=4.3 q=42.7 size=       0KiB time=00:00:01.13 bitrate=   0.3kbits/s speed=0.136x elapsed=0:00:08.34    \nframe=   38 fps=4.3 q=46.0 size=       0KiB time=00:00:01.20 bitrate=   0.3kbits/s speed=0.136x elapsed=0:00:08.85    \nframe=   41 fps=4.4 q=46.1 size=       0KiB time=00:00:01.30 bitrate=   0.3kbits/s speed=0.139x elapsed=0:00:09.37    \nframe=   43 fps=4.3 q=45.1 size=     256KiB time=00:00:01.36 bitrate=1534.8kbits/s speed=0.138x elapsed=0:00:09.89    \nframe=   46 fps=4.4 q=46.1 size=     256KiB time=00:00:01.46 bitrate=1430.1kbits/s speed=0.141x elapsed=0:00:10.41    \nframe=   48 fps=4.4 q=44.7 size=     256KiB time=00:00:01.53 bitrate=1367.9kbits/s speed=0.14x elapsed=0:00:10.94    \nframe=   51 fps=4.5 q=42.5 size=     256KiB time=00:00:01.63 bitrate=1284.2kbits/s speed=0.143x elapsed=0:00:11.45    \nframe=   54 fps=4.5 q=46.4 size=     256KiB time=00:00:01.73 bitrate=1210.1kbits/s speed=0.145x elapsed=0:00:11.97    \nframe=   56 fps=4.5 q=44.9 size=     256KiB time=00:00:01.80 bitrate=1165.3kbits/s speed=0.144x elapsed=0:00:12.48    \nframe=   59 fps=4.5 q=42.2 size=     256KiB time=00:00:01.90 bitrate=1103.9kbits/s speed=0.146x elapsed=0:00:13.00    \nframe=   63 fps=4.7 q=44.4 size=     256KiB time=00:00:02.03 bitrate=1031.6kbits/s speed=0.15x elapsed=0:00:13.52    \nframe=   66 fps=4.7 q=42.1 size=     256KiB time=00:00:02.13 bitrate= 983.2kbits/s speed=0.152x elapsed=0:00:14.03    \nframe=   69 fps=4.7 q=46.5 size=     256KiB time=00:00:02.23 bitrate= 939.2kbits/s speed=0.153x elapsed=0:00:14.54    \nframe=   72 fps=4.8 q=44.4 size=     256KiB time=00:00:02.33 bitrate= 898.9kbits/s speed=0.155x elapsed=0:00:15.06    \nframe=   75 fps=4.8 q=41.9 size=     256KiB time=00:00:02.43 bitrate= 862.0kbits/s speed=0.156x elapsed=0:00:15.57    \nframe=   78 fps=4.8 q=42.0 size=     256KiB time=00:00:02.53 bitrate= 828.0kbits/s speed=0.157x elapsed=0:00:16.09    \nframe=   81 fps=4.9 q=41.9 size=     256KiB time=00:00:02.63 bitrate= 796.5kbits/s speed=0.159x elapsed=0:00:16.61    \nframe=   85 fps=5.0 q=45.5 size=     256KiB time=00:00:02.76 bitrate= 758.1kbits/s speed=0.162x elapsed=0:00:17.12    \nframe=   88 fps=5.0 q=45.6 size=     256KiB time=00:00:02.86 bitrate= 731.7kbits/s speed=0.163x elapsed=0:00:17.63    \nframe=   91 fps=5.0 q=45.7 size=     512KiB time=00:00:02.96 bitrate=1413.9kbits/s speed=0.163x elapsed=0:00:18.15    \nframe=   95 fps=5.1 q=44.0 size=     512KiB time=00:00:03.10 bitrate=1353.1kbits/s speed=0.166x elapsed=0:00:18.67    \nframe=   98 fps=5.1 q=46.1 size=     512KiB time=00:00:03.20 bitrate=1310.8kbits/s speed=0.167x elapsed=0:00:19.18    \nframe=  102 fps=5.2 q=45.9 size=     512KiB time=00:00:03.33 bitrate=1258.4kbits/s speed=0.169x elapsed=0:00:19.70    \nframe=  105 fps=5.2 q=46.1 size=     512KiB time=00:00:03.43 bitrate=1221.7kbits/s speed=0.17x elapsed=0:00:20.22    \nframe=  108 fps=5.2 q=46.0 size=     512KiB time=00:00:03.53 bitrate=1187.2kbits/s speed=0.17x elapsed=0:00:20.74    \nframe=  110 fps=5.2 q=42.2 size=     512KiB time=00:00:03.60 bitrate=1165.2kbits/s speed=0.169x elapsed=0:00:21.24    \nframe=  113 fps=5.2 q=42.5 size=     512KiB time=00:00:03.70 bitrate=1133.7kbits/s speed=0.17x elapsed=0:00:21.76    \nframe=  116 fps=5.2 q=46.7 size=     512KiB time=00:00:03.80 bitrate=1103.9kbits/s speed=0.171x elapsed=0:00:22.28    \nframe=  119 fps=5.2 q=46.8 size=     512KiB time=00:00:03.90 bitrate=1075.6kbits/s speed=0.171x elapsed=0:00:22.79    \nframe=  122 fps=5.2 q=43.3 size=     512KiB time=00:00:04.00 bitrate=1048.7kbits/s speed=0.172x elapsed=0:00:23.30    \nframe=  124 fps=5.2 q=47.1 size=     512KiB time=00:00:04.06 bitrate=1031.5kbits/s speed=0.171x elapsed=0:00:23.83    \nframe=  127 fps=5.2 q=43.5 size=     512KiB time=00:00:04.16 bitrate=1006.7kbits/s speed=0.171x elapsed=0:00:24.34    \nframe=  129 fps=5.2 q=46.9 size=     512KiB time=00:00:04.23 bitrate= 990.9kbits/s speed=0.17x elapsed=0:00:24.85    \nframe=  132 fps=5.2 q=45.0 size=     768KiB time=00:00:04.33 bitrate=1452.0kbits/s speed=0.171x elapsed=0:00:25.37    \nframe=  135 fps=5.2 q=43.5 size=     768KiB time=00:00:04.43 bitrate=1419.2kbits/s speed=0.171x elapsed=0:00:25.88    \nframe=  138 fps=5.2 q=46.3 size=     768KiB time=00:00:04.53 bitrate=1387.9kbits/s speed=0.172x elapsed=0:00:26.40    \nframe=  141 fps=5.2 q=44.5 size=     768KiB time=00:00:04.63 bitrate=1357.9kbits/s speed=0.172x elapsed=0:00:26.92    \nframe=  144 fps=5.2 q=43.8 size=     768KiB time=00:00:04.73 bitrate=1329.3kbits/s speed=0.173x elapsed=0:00:27.43    \nframe=  147 fps=5.3 q=44.7 size=     768KiB time=00:00:04.83 bitrate=1301.8kbits/s speed=0.173x elapsed=0:00:27.96    \n[mp4 @ 0000023cabca1580] Starting second pass: moving the moov atom to the beginning of the file\n[out#0/mp4 @ 0000023cabca1440] video:884KiB audio:0KiB subtitle:0KiB other streams:0KiB global headers:2KiB muxing overhead: 0.578056%\nframe=  150 fps=5.3 q=45.8 Lsize=     889KiB time=00:00:04.93 bitrate=1476.2kbits/s speed=0.175x elapsed=0:00:28.15    \nx265 [info]: frame I:      1, Avg QP:41.33  kb/s: 5730.00 \nx265 [info]: frame P:     39, Avg QP:42.77  kb/s: 2487.10 \nx265 [info]: frame B:    110, Avg QP:45.76  kb/s: 1039.58 \nx265 [info]: Weighted P-Frames: Y:15.4% UV:12.8%\n\nencoded 150 frames in 27.96s (5.36 fps), 1447.20 kb/s, Avg QP:44.95\n",
  "seconds": 28.360963821411133,
  "probe_out": {}
}